# xmcd
#
# Track frame offsets:
# 150
# 6087
# 21578
# 38418
# 58850
# 80328
# 96384
# 119182
# 139404
# 156044
# 177516
# 211883
#
# Disc length: 3222 seconds
#
# Revision: 0
# Processed by: cddbd v1.5.2PL0 Copyright (c) Steve Scherf et al.
# Submitted via: Audion 3.0.2 (http://www.panic.com/audion/)
#
DISCID=a90c940c
DTITLE=common - finding forever
DYEAR=1900
DGENRE=
TTITLE0=intro
TTITLE1=the people
TTITLE2=drivin me wild
TTITLE3=i want you
TTITLE4=southside
TTITLE5=the game
TTITLE6=u, black maybe
TTITLE7=so far to go
TTITLE8=break my heart
TTITLE9=misunderstood
TTITLE10=play your cards right
TTITLE11=time travlin
EXTD=
EXTT0=
EXTT1=
EXTT2=
EXTT3=
EXTT4=
EXTT5=
EXTT6=
EXTT7=
EXTT8=
EXTT9=
EXTT10=
EXTT11=
PLAYORDER=
